<svg id="fork_icon" data-name="fork icon" xmlns="http://www.w3.org/2000/svg" width="40" height="55" viewBox="0 0 40 55"><defs><style>.cls-1{fill:none;}.cls-2,.cls-4{fill:#618339;}.cls-3{fill:#fff;}.cls-4{fill-rule:evenodd;}</style></defs><title>LocusLabs_Grab_Icon_small2</title><rect class="cls-1" width="40" height="55"/><path class="cls-2" d="M0,3V37a3,3,0,0,0,3,3H14.14l.06,0,4.85,5.53.13.13A1.3,1.3,0,0,0,21,45.56L25.71,40l.07,0H37a3,3,0,0,0,3-3V3a3,3,0,0,0-3-3H3A3,3,0,0,0,0,3Z" transform="translate(0 0)"/><path class="cls-3" d="M36,37H4a1,1,0,0,1-1-1V4A1,1,0,0,1,4,3H36a1,1,0,0,1,1,1V36A1,1,0,0,1,36,37Z" transform="translate(0 0)"/><path class="cls-2" d="M13.5,20.89a.74.74,0,0,1-1,0l0,0A10,10,0,0,1,12.43,8a.74.74,0,0,1,1,0l0,0h0a.75.75,0,0,1,0,1,8.49,8.49,0,0,0,0,11A.75.75,0,0,1,13.5,20.89Z" transform="translate(0 0)"/><path class="cls-2" d="M26.5,20.89h0a.75.75,0,0,1,0-1A8.49,8.49,0,0,0,26.5,9a.75.75,0,0,1,0-1h0a.74.74,0,0,1,1,0l0,0a10,10,0,0,1,0,12.93.74.74,0,0,1-1,0Z" transform="translate(0 0)"/><path class="cls-2" d="M11.12,23.25a.73.73,0,0,1-1,0l0,0a13.33,13.33,0,0,1,0-17.75.73.73,0,0,1,1,0l0,0h0a.76.76,0,0,1,0,1,11.82,11.82,0,0,0,0,15.69.76.76,0,0,1,0,1Z" transform="translate(0 0)"/><path class="cls-2" d="M28.88,23.25h0a.76.76,0,0,1,0-1,11.82,11.82,0,0,0,0-15.69.76.76,0,0,1,0-1h0a.73.73,0,0,1,1,0l0,0a13.33,13.33,0,0,1,0,17.73.73.73,0,0,1-1,0Z" transform="translate(0 0)"/><path class="cls-4" d="M22.79,7.86h-.9V17H21V7.86H19.2V17h-.89V7.86h-.9a.89.89,0,0,0-.89.89v11a.89.89,0,0,0,.89.89h.9V33.43a.89.89,0,0,0,.89.89H21a.89.89,0,0,0,.9-.89h0V20.69h.9a.89.89,0,0,0,.89-.89v-11a.92.92,0,0,0-.83-1Z" transform="translate(0 0)"/></svg>